<?xml version="1.0" encoding="UTF-8"?>
<svg id="Layer_1" data-name="Layer 1" xmlns="http://www.w3.org/2000/svg" width="356.17" height="354.31" viewBox="0 0 356.17 354.31">
  <g id="shipmate">
    <path id="body" d="M289.74,338.63c-62.37,20.6-155.58,20.64-218.07,1.66-28.28-8.59-48.45-27.5-57.48-55.42C-3.44,230.4-3.93,144.74,8.8,89.06,18.98,44.52,37.56,21.29,85.09,10.22c61.03-14.22,167.91-17.08,222.75,14.42,20.32,11.67,32.02,31.68,37.48,55.43,15.06,65.43,14.31,134.72-1.46,199.92-7.07,29.24-26.5,49.51-54.13,58.64ZM279.97,320.28c23.66-7.41,39.15-22.93,44.72-46.97,13.89-59.85,15.13-122.75,2.21-183.14-8.54-39.91-28.77-54.86-69.78-62.65-51.88-9.85-104.56-9.57-156.55-.27-39.02,6.98-61.49,20.91-70.41,59.76-14.01,60.99-13.1,124.99,1.47,185.58,5.64,23.44,19.46,38.64,41.83,46.45,56.03,19.56,147.43,19.74,206.51,1.24Z" fill="#090a09"/>
    <path id="mouth_-_smile" data-name="mouth - smile" d="M227.39,213.15c4.02-4.43,8.84-4.77,11.85-3.49,3.82,1.62,7.51,8.88,3.9,13.14-33.51,39.52-94.62,39.97-128.79,1.12-4-4.55-3.49-9.63.28-12.89,3.41-2.95,9.46-2.52,13.21,1.57,26.64,29.09,72.35,30.49,99.56.55Z" fill="#090a09"/>
    <path id="eye_-left" data-name="eye -left" d="M115.58,132.02c11.46-4.06,22.83,1.56,26.64,11.68,4.2,11.13-.33,23.78-11.35,28-10.81,4.15-23.52-.93-27.9-12.03-4.13-10.48.75-23.45,12.61-27.65Z" fill="#080808"/>
    <path id="eye_-_right" data-name="eye - right" d="M225.97,132.22c11.86-4.73,23.5,2.01,27.06,11.62,4.18,11.28-.65,23.87-11.24,27.77-10.58,3.89-22.78-.24-27.26-10.52-4.43-10.18-1.18-23.83,11.43-28.87Z" fill="#080808"/>
  </g>
</svg>